<svg version="1.1" id="Layer_1" xmlns="http://www.w3.org/2000/svg" x="0px" y="0px"
    viewBox="0 0 560 400" style="height: 50px;">
    <style type="text/css">
        {".st0{fill:#0E3FA9;}"}
        {".st1{fill:#FFCF06;}"}
        {".st2{fill:#FFCF06;stroke:#FFCF06;stroke-miterlimit:10;}"}
        {".st3{fill-rule:evenodd;clip-rule:evenodd;fill:#FFCF06;}"}
    </style>
    <g>
        <path class="st0" d="M140.3,299.6c0-0.2-0.2-1.8-0.5-3.5s-1.8-10.7-3.4-19.9c-1.6-9.3-3.1-18.4-3.4-20.3c-0.3-1.9-0.6-3.8-0.8-4.3
            c-0.2-0.6,0.6-1.3,3.2-2.5c9.7-4.5,15.8-15.8,14-25.8c-2-10.7-9.6-18-20.2-19.4c-2.4-0.3-4.5-0.6-4.9-0.7c-0.3-0.1-1-2.6-1.6-5.7
            s-1.7-9.3-2.6-14c-0.9-4.6-2.1-11.2-2.8-14.6c-0.6-3.4-1.7-8.6-2.2-11.5c-1.1-5.4-1.3-7.9-0.7-7.9c0.2,0,3.8-0.6,8-1.4
            c7.5-1.4,24.9-4.4,31-5.4c1.7-0.3,6.6-1.1,10.9-1.9c9.4-1.7,29.6-5.2,34-5.9c1.7-0.3,4.5-0.8,6.2-1.1s6-1.1,9.5-1.7
            c14-2.5,25.8-4.5,32-5.6c14.9-2.6,21.5-3.8,32.3-5.7c3.7-0.7,8.1-1.4,9.8-1.7c1.7-0.3,5.3-0.9,8-1.4s7.1-1.3,9.8-1.7
            c2.7-0.5,7.1-1.2,9.7-1.7s6.9-1.2,9.5-1.7c2.6-0.5,6.2-1.1,7.9-1.3c1.7-0.3,5.4-0.9,8.1-1.4s8.7-1.5,13.2-2.3s10.9-1.9,14.3-2.5
            c3.4-0.6,7.6-1.3,9.3-1.6c3.1-0.5,14-2.4,18.4-3.3c2.2-0.4,2.5-0.4,3,0.8c0.3,0.7,1.2,1.4,1.9,1.6c1,0.2,1.4,0.8,1.6,2.4
            c0.6,4.1,1.5,6.8,2.3,7.1c0.4,0.2,0.8,0.9,0.8,1.7c0,2.1,1.9,5.4,3.9,6.9c2,1.5,5.3,6.4,7.3,10.8c1.1,2.5,1.4,4,1.4,8.2
            c0,3.4,0.3,5.4,0.8,6c0.4,0.5,0.8,2.4,1,4.3c0.3,4.2,1.3,7.9,2.3,7.9c1.1,0,1.9,2,1.6,3.8c-0.2,1.1,0,2.2,0.6,3.1
            c0.8,1.3,0.9,1.8,0.3,4.4c-0.4,1.6-1.4,4.2-2.2,5.8c-1.4,2.6-1.5,3-0.8,5c0.5,1.5,0.6,2.4,0.1,3.2c-0.4,0.8-0.4,1.3,0.1,1.9
            c0.5,0.5,0.6,5.7,0.7,17.4c0,18-0.2,16.5,3.6,25c1.3,2.8,2,5.3,2.1,7.6c0.1,1.8,0.6,4.1,1.1,5c0.8,1.6,0.8,1.8-0.2,3.4
            c-0.6,0.9-1,2.6-1,3.8c0,2.2-0.1,2.3-4.2,3c-2.2,0.3-8.8,1.6-24.1,4.5c-4,0.8-12.6,2.3-19.1,3.4c-22,3.8-26.9,4.7-33.7,5.9
            c-3.7,0.7-8.1,1.4-9.8,1.7s-5.2,0.9-7.9,1.3c-18.9,3.4-33.4,5.9-37,6.5c-1.7,0.3-5.2,0.9-7.9,1.3c-2.6,0.5-9.8,1.7-16,2.8
            c-6.2,1.1-15.8,2.7-21.3,3.7c-5.6,1-11.5,2-13.2,2.3c-1.7,0.3-7.5,1.3-12.9,2.2c-18.1,3.2-28.9,5.1-32,5.6
            c-1.7,0.3-5.4,0.9-8.1,1.4s-7.8,1.4-11.2,2c-3.4,0.6-8.4,1.5-11.2,2c-5.3,0.9-17.9,3.1-18.1,3.1C140.3,300,140.3,299.8,140.3,299.6
            L140.3,299.6z"/>
        <path class="st0" d="M140.3,299.6c0-0.2-0.2-1.8-0.5-3.5s-1.8-10.7-3.4-19.9c-1.6-9.3-3.1-18.4-3.4-20.3c-0.3-1.9-0.6-3.8-0.8-4.3
            c-0.2-0.6,0.6-1.3,3.2-2.5c9.7-4.5,15.8-15.8,14-25.8c-2-10.7-9.6-18-20.2-19.4c-2.4-0.3-4.5-0.6-4.9-0.7c-0.3-0.1-1-2.6-1.6-5.7
            s-1.7-9.3-2.6-14c-0.9-4.6-2.1-11.2-2.8-14.6c-0.6-3.4-1.7-8.6-2.2-11.5c-1.1-5.4-1.3-7.9-0.7-7.9c0.2,0,3.8-0.6,8-1.4
            c7.5-1.4,24.9-4.4,31-5.4c1.7-0.3,6.6-1.1,10.9-1.9c9.4-1.7,29.6-5.2,34-5.9c1.7-0.3,4.5-0.8,6.2-1.1s6-1.1,9.5-1.7
            c14-2.5,25.8-4.5,32-5.6c14.9-2.6,21.5-3.8,32.3-5.7c3.7-0.7,8.1-1.4,9.8-1.7c1.7-0.3,5.3-0.9,8-1.4s7.1-1.3,9.8-1.7
            c2.7-0.5,7.1-1.2,9.7-1.7s6.9-1.2,9.5-1.7c2.6-0.5,6.2-1.1,7.9-1.3c1.7-0.3,5.4-0.9,8.1-1.4s8.7-1.5,13.2-2.3s10.9-1.9,14.3-2.5
            c3.4-0.6,7.6-1.3,9.3-1.6c3.1-0.5,14-2.4,18.4-3.3c2.2-0.4,2.5-0.4,3,0.8c0.3,0.7,1.2,1.4,1.9,1.6c1,0.2,1.4,0.8,1.6,2.4
            c0.2,1.2,0.6,3.1,0.9,4.3c0.3,1.2,0.5,2.3,0.3,2.4s-1.7,0.5-3.5,0.7c-1.8,0.3-6.2,1-9.7,1.7c-9.1,1.7-18.9,3.4-22.2,4
            c-1.5,0.3-4.3,0.8-6.2,1.1s-4.3,0.8-5.3,0.9c-1.1,0.2-4.6,0.8-7.9,1.4c-6.9,1.3-9.8,1.8-18.5,3.3c-11.5,2-18.7,3.3-21.6,3.9
            c-1.5,0.3-5.3,1-8.4,1.5s-6.7,1.1-8.1,1.4s-3.9,0.7-5.6,1c-1.7,0.3-4.5,0.8-6.2,1.1c-1.7,0.3-4.5,0.8-6.2,1.1
            c-1.7,0.3-6,1.1-9.5,1.7c-3.5,0.6-9.4,1.7-12.9,2.3c-3.5,0.6-7.8,1.4-9.5,1.7c-1.7,0.3-4.5,0.8-6.2,1.1c-1.7,0.3-4.3,0.7-5.9,1
            c-1.5,0.3-5.7,1-9.3,1.7c-19.1,3.4-25.2,4.5-32,5.7c-3.2,0.6-7.4,1.3-9.3,1.6c-1.9,0.3-4.8,0.8-6.5,1.1c-1.7,0.3-4.5,0.8-6.2,1.1
            c-1.7,0.3-6.1,1-9.8,1.7c-3.7,0.6-7.9,1.4-9.4,1.6c-1.5,0.2-3,0.7-3.3,1.1c-0.6,0.6-0.3,3.3,1.2,10.5c0.3,1.2,0.8,4,1.1,6.2
            c0.4,2.2,0.9,5.2,1.1,6.7c0.3,1.5,0.8,4.4,1.1,6.5c0.8,4.8,1.5,8.4,2.5,13.6c0.5,2.4,1.1,6,1.4,8.1c0.7,4.5,1.4,8.2,2.2,12.8
            c0.3,1.9,0.8,4.8,1.1,6.5c0.3,1.7,1,6,1.7,9.5c1.4,7.6,3.3,18.2,3.9,22.2c0.3,1.5,1,5.8,1.7,9.5s1.4,7.8,1.6,9.1
            c0.2,1.3,0.6,2.6,0.8,2.8c0.4,0.4,5.1-0.2,13.8-1.8c10.1-1.8,21.3-3.7,27.8-4.8c3.7-0.6,7.9-1.3,9.3-1.6c1.4-0.3,6.7-1.2,11.8-2
            c5.1-0.8,11.2-1.8,13.5-2.3s11.8-2.1,21-3.6c9.3-1.6,18.9-3.2,21.3-3.7c2.5-0.5,9.8-1.7,16.3-2.8c6.5-1.1,14.6-2.5,18-3.1
            c3.4-0.6,9.2-1.6,12.9-2.2s10.4-1.7,14.9-2.5c17.1-3,28.9-5,44.9-7.7c9.1-1.5,20.8-3.6,25.9-4.5c5.2-0.9,9.6-1.7,10-1.7
            s1.1,0.8,1.6,1.8c1,1.7,1,1.8,0,3.5c-0.6,1-1.1,2.7-1.1,3.8c0,2.2-0.1,2.3-4.2,3c-2.2,0.3-8.8,1.6-24.1,4.5
            c-4,0.8-12.6,2.3-19.1,3.4c-22,3.8-26.9,4.7-33.7,5.9c-3.7,0.7-8.1,1.4-9.8,1.7s-5.2,0.9-7.9,1.3c-18.9,3.4-33.4,5.9-37,6.5
            c-1.7,0.3-5.2,0.9-7.9,1.3c-2.6,0.5-9.8,1.7-16,2.8c-6.2,1.1-15.8,2.7-21.3,3.7c-5.6,1-11.5,2-13.2,2.3c-1.7,0.3-7.5,1.3-12.9,2.2
            c-18.1,3.2-28.9,5.1-32,5.6c-1.7,0.3-5.4,0.9-8.1,1.4s-7.8,1.4-11.2,2c-3.4,0.6-8.4,1.5-11.2,2c-5.3,0.9-17.9,3.1-18.1,3.1
            C140.3,300,140.3,299.8,140.3,299.6L140.3,299.6z M168.1,279.1c-0.1-0.4-0.8-3.7-1.4-7.4c-0.7-3.7-1.4-7.9-1.7-9.3
            s-0.6-3.7-0.8-5.1c-0.2-1.4-0.6-3.7-0.8-5.1s-1-5.6-1.7-9.3c-0.7-3.7-1.4-8-1.7-9.5c-0.8-4.2-2.8-15.9-3.4-19.4
            c-0.3-1.7-0.8-4.5-1.1-6.2s-0.8-4.5-1.1-6.2s-0.8-4.5-1.1-6.2c-1.2-6.5-1.7-9.5-2.8-15.7c-0.6-3.6-1.5-8.6-2-11.1
            c-0.5-2.6-0.8-5.6-0.7-6.7c0.2-2,0.2-2.1,3-2.4c1.5-0.2,4.2-0.6,5.9-1c1.7-0.3,4.5-0.8,6.2-1.1s4.5-0.8,6.2-1.1
            c1.7-0.3,4.6-0.8,6.5-1.2c1.9-0.3,4.8-0.8,6.5-1.1c1.7-0.3,7.4-1.3,12.6-2.2c5.2-0.9,10.9-2,12.6-2.2s6-1,9.5-1.7
            c3.5-0.6,7.8-1.4,9.5-1.7c1.7-0.3,4.5-0.8,6.2-1.1c3.4-0.6,5.9-1.1,14.3-2.4c3.1-0.5,6.5-1.1,7.6-1.4c1.1-0.3,3.7-0.8,5.9-1.1
            c2.2-0.3,5.2-0.9,6.7-1.1c3.4-0.6,7.7-1.4,12.3-2.2c1.9-0.3,6-1.1,9.3-1.7s7.7-1.4,9.8-1.8s4.9-0.9,6.2-1.1
            c1.2-0.3,4.1-0.8,6.5-1.1s5.1-0.8,6.2-1.1c1.1-0.3,3.7-0.8,5.9-1.1c5.4-0.8,8.3-1.3,19.4-3.4c3.5-0.6,9.2-1.7,12.6-2.3
            c3.4-0.6,6.9-1.2,7.9-1.4s3.2-0.6,5.1-0.9c4-0.7,7.3-1.3,11.5-2.1c1.7-0.3,5.5-1,8.4-1.5c2.9-0.5,6.7-1.1,8.4-1.5
            c1.7-0.3,4.4-0.8,6.1-1l3-0.4l1.3,2.6c0.7,1.4,2.1,3.1,3,3.8c2,1.5,5.3,6.4,7.3,10.8c1.1,2.5,1.4,4,1.4,8.2c0,3.4,0.3,5.4,0.8,6
            c0.4,0.5,0.8,2.4,1,4.3c0.3,4.2,1.3,7.9,2.3,7.9c1.1,0,1.9,2,1.6,3.8c-0.2,1.1,0,2.2,0.6,3.1c0.8,1.3,0.9,1.8,0.3,4.4
            c-0.4,1.6-1.4,4.2-2.2,5.8c-1.4,2.6-1.5,3-0.8,5c0.5,1.5,0.6,2.4,0.1,3.2c-0.4,0.8-0.4,1.3,0.1,1.9c0.5,0.5,0.6,5.7,0.7,17.4
            c0,18.3-0.2,17,4.1,26.1c1.4,2.9,1.9,6.7,1,6.8c-0.2,0-0.9,0.1-1.5,0.3c-1.8,0.4-63.1,10.9-66.5,11.5c-1.7,0.3-8.4,1.4-14.9,2.5
            c-6.5,1.1-19.1,3.3-28.1,4.8c-9,1.5-21.5,3.7-27.8,4.8c-20.1,3.5-34.4,5.9-39.3,6.7c-2.6,0.4-10.8,1.8-18.2,3.1
            c-43.5,7.5-62,10.7-62.7,10.7C168.5,279.8,168.2,279.5,168.1,279.1L168.1,279.1z M177,236.8l6.1-1l2.2-3c2.5-3.3,2.5-3.7,1.6-9.3
            c-0.6-4-0.8-4.3-4-6c-2.1-1.1-2.1-1.5-0.5-3.2c1.4-1.5,1.5-3.3,0.4-8.7c-0.7-3.4-0.8-3.7-3.5-5.3c-2.4-1.5-3.1-1.7-5.4-1.4
            c-4.5,0.6-12,1.9-12.2,2.1c-0.2,0.2,0.5,5.2,1.5,10.7c0.3,1.9,0.8,4.8,1.1,6.5c0.5,3,0.7,4.2,2.5,14c0.5,2.6,0.9,5.1,0.9,5.5
            c0,0.5,0.5,0.7,1.6,0.4C170.1,237.9,173.6,237.3,177,236.8L177,236.8z M175.4,228.3c-0.2-0.5-0.5-2.2-0.8-3.7
            c-0.4-2.4-0.4-2.7,0.6-3.3c1.7-0.9,2.5,0.4,3,4.4c0.4,3.5,0.4,3.5-1,3.5C176.2,229.3,175.6,228.9,175.4,228.3z M172.5,213.4
            c-0.1-0.4-0.3-2.1-0.4-3.8c-0.1-2.6,0-3.1,1-3.3c1.6-0.3,2.6,1.4,2.6,4.4c0,1.9-0.3,2.7-0.9,3C173.4,214.3,172.8,214.2,172.5,213.4
            L172.5,213.4z M200.1,232.7c3.6-0.6,6.7-1.1,6.8-1.1c0.4,0-0.6-6.5-1.1-6.8c-0.3-0.2-1.9-0.1-3.7,0.2c-1.7,0.3-3.3,0.3-3.6,0.1
            c-0.5-0.5-1.8-7.4-3.8-19.6c-0.3-1.9-0.9-4.9-1.2-6.6l-0.7-3.2l-2.1,0.3c-5.7,0.9-6.3,1.1-6.3,2c0,0.9,0.9,6.2,2.2,13.5
            c0.3,1.7,0.9,5.4,1.4,8.1s1.1,6.2,1.4,7.6c0.3,1.4,0.7,3.5,0.9,4.6C190.9,234.2,190.9,234.2,200.1,232.7L200.1,232.7z M220.1,229.2
            l4.4-0.7l2.5-3.4c1.4-1.9,2.4-3.8,2.2-4.2s-0.6-2.6-0.9-4.8c-0.4-2.2-0.8-4.9-1.1-6.2c-0.2-1.2-0.9-5-1.4-8.3l-1-6.1l-3.4-2.2
            c-3-2-3.7-2.2-5.6-1.9c-1.2,0.2-3.3,0.5-4.7,0.7c-2.2,0.3-2.7,0.7-4.9,3.7c-2,2.7-2.4,3.7-2.1,4.8c0.4,1.4,0.6,3,1.9,11
            c0.3,2.2,1.1,6.2,1.6,9l1,5.1l3.1,2.1C215.1,230.1,214.5,230,220.1,229.2L220.1,229.2z M217.6,222.1c-0.6-0.1-1.1-1-1.3-2.6
            c-0.2-1.3-0.6-3.5-0.8-4.9s-0.8-4.4-1.1-6.7s-0.9-5.1-1.2-6.1c-0.7-2.2-0.1-3.1,1.8-2.8c1.4,0.2,1.8,1.7,4.4,17
            C220.3,221.8,220.1,222.7,217.6,222.1L217.6,222.1z M245.1,224.8c2.6-0.6,3.2-1,5.2-3.7l2.3-3l-0.7-4.5c-1-6.9-0.8-6.7-6.2-5.5
            l-2.9,0.6l0.2,4.6c0.2,4.6,0.2,4.6-1.2,4.6c-1.6,0-1.6,0-3.9-13.3c-0.6-3.6-1.3-7.2-1.5-7.9c-0.3-1.1-0.1-1.4,1-1.7
            c1.8-0.5,2.8,0.7,3.1,3.8c0.3,2.5,0.4,2.6,2,2.6c2,0,6.4-0.8,6.8-1.2c0.1-0.1,0-1.6-0.4-3.3c-0.3-1.7-0.7-3.6-0.9-4.3
            c-0.2-0.8-1.4-2-3.6-3.4l-3.3-2.1l-4.6,0.8c-4.9,0.8-4.9,0.8-8,5.2l-1.4,2l2.3,12.7c1.2,7,2.3,12.9,2.3,13.3c0,0.7,4,3.4,6.5,4.4
            c0.9,0.4,2.2,0.6,2.8,0.4C241.6,225.5,243.5,225.1,245.1,224.8L245.1,224.8z M263.4,221.7c1-0.4,1.3-4.2,0.5-6.5
            c-0.8-2.1-1.4-7.9-0.8-7.5c0.3,0.2,2.1,3,4.1,6.3l3.6,6l3.9-0.4c4.2-0.4,5.4-0.7,5.4-1.4c0-0.2-2.5-4.3-5.7-9
            c-6.4-9.7-6.1-8.3-3.9-18c0.7-2.9,1.4-6.3,1.5-7.5l0.3-2.2l-2.5,0.4c-6.9,1.1-6.2,0.5-6.9,5.9c-0.6,5.1-1.2,8.4-1.6,8.8
            c-0.9,0.9-1.2-0.4-2.5-9.3c-0.4-2.4-0.5-2.5-2.4-2.7c-1.1-0.1-3.1,0.1-4.3,0.4c-2.5,0.7-2.6,1-1.7,5.4c0.9,4.7,2.6,13.8,4.2,23.2
            c0.5,2.9,1,6.2,1.2,7.2l0.3,1.9l3.2-0.3C261,222.2,262.8,221.9,263.4,221.7L263.4,221.7z M291,216.7c5.9-0.9,6.2-1.1,9.4-5.4
            c2.2-2.9,0.2-13.4-2.6-13.4c-0.3,0-1.1-0.4-1.7-0.8c-1-0.8-1-0.9,0.4-3.3c1.4-2.4,1.5-2.7,0.8-6.1c-1-5.5-1.4-6.2-4.3-7.8
            c-2.9-1.6-3.5-1.6-13.3,0.2c-3.9,0.7-3.9,0.7-3.9,2.4c0.1,2.1,1.3,9.1,4.2,25c0.3,1.7,0.8,4.5,1,6.2c0.5,4,1,4.6,2.8,4.3
            C284.7,217.7,287.9,217.1,291,216.7L291,216.7z M289.3,208.8c-0.2-0.4-0.4-2.2-0.7-4c-0.3-3.1-0.3-3.3,0.8-3.6
            c1.6-0.4,2.2,0.5,2.6,4.4c0.4,3.4,0.4,3.4-1.1,3.7C290.2,209.4,289.5,209.2,289.3,208.8z M286.5,193.1c-0.2-0.5-0.5-2.1-0.7-3.6
            c-0.3-2.5-0.3-2.8,0.9-3.1c1.6-0.5,1.9-0.1,2.8,3.6c0.6,2.5,0.6,3.1,0,3.5C288.3,194.2,286.9,194,286.5,193.1L286.5,193.1z
            M315.1,212.4c1.8-0.3,3.9-0.7,4.5-0.8c1.6-0.3,5.3-5.9,5.3-7.9c0-0.9-0.4-3.4-0.8-5.6c-0.5-2.2-1.1-5.6-1.4-7.6
            c-0.3-2-0.9-5.6-1.4-8.1c-0.5-2.5-0.8-5.1-0.9-5.9c0-0.8-0.3-1.9-0.7-2.4c-0.7-0.9-1.1-0.9-4.5-0.3l-3.8,0.7v2.1
            c0,1.2,0.2,3.3,0.5,4.8c0.3,1.5,1.1,5.6,1.7,9.1s1.5,7.9,1.8,9.7c0.7,3.8,0.4,4.9-1.4,4.9c-1.2,0-1.4-0.4-2.6-6.3
            c-0.7-3.5-1.5-7.8-1.8-9.7s-0.8-4.6-1.1-6.2c-0.3-1.5-0.7-3.9-0.9-5.2c-0.4-2.7-0.8-2.8-5.7-1.7c-2.9,0.7-3,0.7-3,2.8
            c0,1.2,0.2,3.2,0.5,4.5c0.3,1.3,1.1,5.5,1.7,9.4c0.7,3.9,1.4,8.2,1.7,9.5c0.3,1.4,0.6,3.4,0.8,4.5c0.2,1.6,0.8,2.3,3.5,4.1
            C310.9,213.3,310.6,213.2,315.1,212.4L315.1,212.4z M340.9,207.9c2.9-0.6,3.7-1.3,6.3-5.2c1.3-2,1.4-2.4,0.8-5.1
            c-0.3-1.6-0.8-3.9-1-5.2c-0.3-1.9-0.8-2.7-2.4-3.9c-3.4-2.6-4.4-3-7.9-3c-3.8,0-3.8,0-4.1-5.1c-0.1-2.4-0.1-2.5,1.4-2.7
            c1.4-0.2,1.6,0,1.9,2.2l0.4,2.4l3.7-0.3c2-0.2,3.9-0.6,4.2-0.9s0.3-1.9,0.1-3.6c-0.4-3.1-0.4-3.1-3.8-5.2l-3.4-2.1l-4.5,0.6
            c-4.3,0.6-4.6,0.7-6.4,2.8c-3.1,3.7-3.3,4.6-2.1,10.7l1.1,5.4l2.8,1.7c2.1,1.3,3.7,1.8,6.4,2l3.6,0.3l0.7,3.1
            c0.5,2.2,0.5,3.3,0.1,3.8c-1.1,1.3-2.2,0.7-3.1-1.6c-1-2.5-0.4-2.4-6.6-1.4c-0.6,0.1-1.4,0.2-1.8,0.3c-0.5,0.1-0.6,0.8-0.3,3
            c0.4,3.5,0.7,3.8,4.4,6.3C334.4,209.2,334.5,209.2,340.9,207.9z M362.4,204.2l1.9-0.3l-0.3-2.6c-0.2-1.4-0.6-4-0.9-5.7
            c-4.2-24.3-4.1-22.3-1.6-22.6c1.8-0.2,1.8-0.2,1.7-3.1c-0.1-4.5-0.2-4.6-3.7-4c-5,0.8-9.6,1.7-12.4,2.3l-2.7,0.6l0.4,2.9
            c0.2,1.6,0.5,3.1,0.7,3.3s1.3,0.5,2.6,0.6c2.7,0.2,2.7,0.2,4.8,13.4c1.6,9.6,2.4,13.9,2.8,15C356.3,205.1,356.4,205.2,362.4,204.2
            L362.4,204.2z M378.7,201.2c9.3-1.6,9.1-1.5,8.3-5.1l-0.7-3l-3.7,0.2l-3.7,0.2l-0.7-3.1c-1-4.7-0.7-5.6,1.8-6
            c1.2-0.2,2.3-0.6,2.6-0.8c0.6-0.7-0.6-7-1.3-7c-0.3,0-1.5,0.2-2.5,0.6c-1.2,0.3-2.1,0.4-2.5,0c-0.7-0.7-1.4-5.4-1-6.1
            c0.2-0.3,1.7-0.7,3.4-1c3.4-0.5,3.3-0.3,2.5-5.1c-0.3-1.7-0.7-2.4-1.3-2.4c-2.1,0-13.8,2.3-14.3,2.8c-0.4,0.4-0.2,2.6,0.4,6.3
            c0.5,3.2,1.5,8.7,2,12.2s1.2,7,1.3,7.6s0.6,3,0.9,5.3c0.8,4.9,1,5.6,1.4,5.6C372,202.3,375.1,201.8,378.7,201.2L378.7,201.2z
            M395.6,198.2l2.5-0.7l-0.2-2.5c-0.1-1.4-0.5-4.1-1-6.2s-0.8-4.1-0.8-4.7c0-1.2,2.1-2.5,2.9-1.7c0.3,0.3,1,3.3,1.5,6.7
            c0.6,3.4,1.2,6.5,1.4,6.8c0.9,1.5,8.2,0.1,8.2-1.5c0-0.5-0.5-3.7-1.1-7.1c-1.1-6-1.2-6.2-3.4-8.2l-2.3-2l1.5-1.8
            c1.5-1.8,1.5-1.8,0.9-6.4c-0.7-5-1.2-5.9-4.8-8.2c-1.9-1.2-2.6-1.4-5.6-1.1c-4.3,0.4-11.4,1.7-11.9,2.2c-0.2,0.2-0.1,1.7,0.2,3.3
            c0.3,1.6,0.9,4.6,1.2,6.6c1.5,8.6,2.1,11.9,3.4,18.5c0.3,1.4,0.6,3.9,0.8,5.5c0.4,2.9,0.4,2.9,2.1,2.9
            C392.3,198.9,394.2,198.6,395.6,198.2L395.6,198.2z M394.1,172.1c-0.9-4.1-0.8-4.4,0.2-4.8c1.6-0.6,2.5,0.3,3.1,3.3
            c0.8,3.5,0.5,4.8-1.3,4.8C394.9,175.4,394.6,175,394.1,172.1z"/>
        <path d="M440.8,238c0.9,0,1.8,0.2,2.6,0.7c0.9,0.5,1.5,1.1,2,2c0.5,0.9,0.7,1.7,0.7,2.7c0,0.9-0.2,1.8-0.7,2.7
            c-0.5,0.8-1.1,1.5-2,2c-0.8,0.5-1.7,0.7-2.7,0.7s-1.8-0.2-2.7-0.7s-1.5-1.1-2-2c-0.5-0.8-0.7-1.7-0.7-2.7c0-0.9,0.2-1.8,0.7-2.7
            c0.5-0.9,1.1-1.5,2-2S439.9,238,440.8,238L440.8,238z M440.8,238.9c-0.7,0-1.5,0.2-2.2,0.6c-0.7,0.4-1.3,0.9-1.7,1.6
            c-0.4,0.7-0.6,1.5-0.6,2.2c0,0.8,0.2,1.5,0.6,2.2c0.4,0.7,0.9,1.3,1.7,1.6c0.7,0.4,1.4,0.6,2.2,0.6c0.8,0,1.5-0.2,2.2-0.6
            c0.7-0.4,1.3-0.9,1.6-1.6c0.4-0.7,0.6-1.4,0.6-2.2c0-0.8-0.2-1.5-0.6-2.2c-0.4-0.7-1-1.3-1.7-1.6S441.5,238.9,440.8,238.9
            L440.8,238.9z M438.4,246.3v-5.7h2c0.7,0,1.2,0.1,1.5,0.2c0.3,0.1,0.5,0.3,0.7,0.6c0.2,0.3,0.3,0.5,0.3,0.8c0,0.4-0.1,0.8-0.4,1.1
            c-0.3,0.3-0.7,0.5-1.2,0.5c0.2,0.1,0.4,0.2,0.5,0.3c0.2,0.2,0.5,0.6,0.8,1.1l0.7,1.1h-1.1l-0.5-0.9c-0.4-0.7-0.7-1.2-1-1.3
            c-0.2-0.1-0.4-0.2-0.7-0.2h-0.5v2.4L438.4,246.3z M439.4,243.1h1.1c0.5,0,0.9-0.1,1.1-0.2s0.3-0.4,0.3-0.6c0-0.2,0-0.3-0.1-0.5
            c-0.1-0.1-0.2-0.2-0.4-0.3c-0.2-0.1-0.5-0.1-0.9-0.1h-1.1L439.4,243.1z"/>
    </g>
    <g>
        <path class="st1" d="M182.4,198.5l7-1.2l6.3,36.1l-6.4,1.1l-2.8-16.2l-0.3,16.7l-5.5,1l-6-15.6l2.8,16.2l-6.4,1.1l-6.3-36.1l7-1.2
            l8.3,15.6L182.4,198.5z"/>
        <path class="st2" d="M208.9,193.9l5.7,3.8l4.7,26.8l-4.1,5.5l-11,1.9l-5.7-3.8l-4.7-26.8l4.1-5.5L208.9,193.9z M208.4,200.2l-8,1.4
            l4.2,24l8-1.4L208.4,200.2z"/>
        <path class="st2" d="M233.3,189.6l5.7,3.8l1.1,6.1l-6.4,1.1l-0.8-4.7l-8,1.4l4.2,24l8-1.4l-0.8-4.7l6.4-1.1l1.1,6.1l-4.1,5.5
            l-11,1.9l-5.7-3.8l-4.7-26.8l4.1-5.5L233.3,189.6z"/>
        <path class="st2" d="M263.4,184.3l-6.5,19.8l12.8,16.4l-7.2,1.3L252,208.4l2.6,14.7l-6.4,1.1l-6.3-36.1l6.4-1.1l2.6,14.7l5.4-16.1
            L263.4,184.3z"/>
        <path class="st2" d="M282.9,180.9l5.7,3.8l2.1,11.8l-1.5,2l2,1.3l2.1,11.8l-4.1,5.5l-15.9,2.8l-6.3-36.1L282.9,180.9z M276,197.6
            l7.9-1.4l-1.6-9l-7.9,1.4L276,197.6z M285.1,202.3l-8,1.4l1.6,9l8-1.4L285.1,202.3z"/>
        <path class="st2" d="M305.8,176.9l6.4-1.1l5.5,31.5l-4.1,5.5l-11,1.9l-5.7-3.8l-5.5-31.5l6.4-1.1l5.3,30l7.9-1.4L305.8,176.9z"/>
        <path class="st2" d="M331.7,172.4l5.7,3.8l1.5,8.4l-6.4,1.1l-1.2-7l-8,1.4l1.6,9l9.3-1.6l3.8,2.5l0,0l2,1.3l2.1,11.8l-4.1,5.5
            l-11,1.9l-5.7-3.8l-1.1-6.1l6.4-1.1l0.8,4.7l8-1.4l-1.6-9l-9.6,1.7l-5.6-3.8l-2.1-11.8l4.1-5.5L331.7,172.4z"/>
        <path class="st2" d="M359,167.6l1.1,6.1l-6.2,1.1l5.3,30l-6.4,1.1l-5.3-30l-6.2,1.1l-1.1-6.1L359,167.6z"/>
        <path class="st2" d="M379.7,164l1.1,6.1l-10.6,1.9l1.6,9l8.5-1.5l1.1,6l-8.5,1.5l1.6,9l10.6-1.9l1.1,6.1l-17.1,3l-6.3-36.1
            L379.7,164z"/>
        <path class="st2" d="M399.2,160.6l5.7,3.8l2.1,11.8l-1.5,2l2,1.3l2.9,16.4l-6.4,1.1l-2.5-14.3l-8,1.4l2.5,14.3l-6.4,1.1l-6.3-36.1
            L399.2,160.6z M398.7,166.9l-8,1.4l1.7,9.7l8-1.4L398.7,166.9z"/>
    </g>
    <g>
        <path class="st3" d="M404.2,111.3l-259.5,45.5l0.5,2.8l259.5-45.5L404.2,111.3z"/>
        <path class="st3" d="M168.5,282l-21.7-125l-2.8-0.2l21.7,125L168.5,282z"/>
        <path class="st3" d="M427.5,233.8l-259.5,45.5l0.5,2.8L428,236.5L427.5,233.8z"/>
    </g>
</svg>